<?xml version="1.0" encoding="utf-8"?>
<!-- Generator: Adobe Illustrator 24.0.0, SVG Export Plug-In . SVG Version: 6.00 Build 0)  -->
<svg version="1.1" id="Layer_1" xmlns="http://www.w3.org/2000/svg" xmlns:xlink="http://www.w3.org/1999/xlink" x="0px" y="0px"
	 viewBox="0 0 91.4472504 69.5242004" style="enable-background:new 0 0 91.4472504 69.5242004;" xml:space="preserve">
<style type="text/css">
	.st0{fill:#795AFB;}
</style>
<circle class="st0" cx="45.7191696" cy="13" r="13"/>
<path class="st0" d="M54.7191696,69.5242004h-18c-8.8365555,0-16-7.1634445-16-16.0000038v-8
	c0-8.8365555,7.1634445-15.9999981,16-15.9999981h18c8.8365555,0,16,7.1634426,16,15.9999981v8
	C70.7191696,62.3607559,63.5557251,69.5242004,54.7191696,69.5242004z"/>
<circle class="st0" cx="74.4909286" cy="20.1250858" r="7.9085407"/>
<g>
	<path class="st0" d="M79.2802582,31.4591351h-6.0834961c-1.7823486,0-3.4699097,0.3925171-4.9953003,1.0810528
		c3.4224243,3.2786255,5.5662842,7.8815918,5.5662842,12.9840088v8c0,0.7701416-0.0647583,1.5239258-0.1590576,2.2688599h5.6715698
		c6.7196655,0,12.1669922-5.4473267,12.1669922-12.1669312v-0.000061
		C91.4472504,36.9064598,85.9999237,31.4591351,79.2802582,31.4591351z"/>
</g>
<circle class="st0" cx="16.956316" cy="20.1250858" r="7.9085407"/>
<g>
	<path class="st0" d="M12.1669922,31.4591351h6.0834961c1.7823486,0,3.4699097,0.3925171,4.9953003,1.0810528
		c-3.4224243,3.2786255-5.5662842,7.8815918-5.5662842,12.9840088v8c0,0.7701416,0.0647583,1.5239258,0.1590576,2.2688599
		h-5.6715698C5.4473267,55.7930565,0,50.3457298,0,43.6261253v-0.000061C0,36.9064598,5.4473267,31.4591351,12.1669922,31.4591351z"
		/>
</g>
</svg>
