<?xml version="1.0" encoding="utf-8"?>
<!-- Generator: Adobe Illustrator 24.0.0, SVG Export Plug-In . SVG Version: 6.00 Build 0)  -->
<svg version="1.1" id="Слой_1" xmlns="http://www.w3.org/2000/svg" xmlns:xlink="http://www.w3.org/1999/xlink" x="0px" y="0px"
	 viewBox="0 0 18 21" style="enable-background:new 0 0 18 21;" xml:space="preserve">
<g>
	<path d="M18,21h-1c0-4.4111328-3.5888672-8-8-8s-8,3.5888672-8,8H0c0-4.9628906,4.0375977-9,9-9C13.9628906,12,18,16.0371094,18,21
		z"/>
</g>
<path d="M9,3c1.6542101,0,3,1.3457899,3,3s-1.3457899,3-3,3S6,7.6542101,6,6S7.3457899,3,9,3 M9,2C6.7908602,2,5,3.7908602,5,6
	s1.7908602,4,4,4s4-1.7908602,4-4S11.2091398,2,9,2L9,2z"/>
</svg>
