<?xml version="1.0" encoding="utf-8"?>
<!-- Generator: Adobe Illustrator 24.0.0, SVG Export Plug-In . SVG Version: 6.00 Build 0)  -->
<svg version="1.1" id="Layer_1" xmlns="http://www.w3.org/2000/svg" xmlns:xlink="http://www.w3.org/1999/xlink" x="0px" y="0px"
	 viewBox="0 0 512 512" style="enable-background:new 0 0 512 512;" xml:space="preserve">
<style type="text/css">
	.st0{fill:#141414;}
</style>
<path class="st0" d="M256,13C121.7999878,13,13,121.7999878,13,256c0,49.0999756,14.5999756,94.8999634,39.7000122,133.0999756
	l-31.2999878,106l110.0999756-30.5c36.4000244,21.7999878,79,34.2999878,124.5,34.2999878c134.2000122,0,243-108.7999878,243-243
	C499,121.7999878,390.2000122,13,256,13z M389.2000732,335.9000244c0,0.0999756,0,0.2000122,0,0.2999878
	c-2,13.4000244-9.7999878,25.3000488-20.9000244,33.2000122c-4.2000122,3.1000366-9.3999634,6-15.5999756,8.4000244
	c-13.5,5.0999756-25.3000488,5-31.7000122,4.3999634c-15.7000122-1.8999634-39.1000366-6.5-64.9000244-18.8999634
	c-27.9000244-13.4000244-45.5-29.5-59.7000122-42.6000366c-12.5999756-11.5-31.2000122-28.8999634-48.2999878-57
	c-10.0999756-16.5-16.7999878-32.0999756-21.4000244-45.2000122c-4.8999634-14-5.6999512-29.1999512-1.5999756-43.3999634
	c0.2999878-1,0.5999756-1.9000244,0.9000244-2.9000244c3.6999512-11.1999512,9.2999878-19.6999512,14-25.3999634
	c3.8999634-4.7999878,10.0999756-10.5,18.5999756-11.7000122c3-0.4000244,7.0999756-0.4000244,11.7000122-0.2999878
	c1.5999756,0,3.0999756,0,4.5,0.0999756c4.0999756,0.2000122,8,1.7000122,11,4.4000244c0,0,0.7999878,0.7000122,1.5,1.3999634
	c4.0999756,4.2000122,14.7000122,31.5,20,45.6000366c3.0999756,8.5,3.7000122,17.7999878,0.8999634,26.3999634
	c0,0-0.0999756,0.0999756-0.0999756,0.2000122c-4.5,13.8999634-14.6000366,21.3999634-18.2999878,23.8999634
	c7.3999634,13.5,20.5999756,34.2000122,43.0999756,53.5c18.7999878,16.2000122,37.4000244,25.7999878,51.2000122,31.5
	c2.8999634,1.2000122,6.1999512,0.4000244,8.2999878-2l26.5999756-30c1.6000366-1.8999634,4.2999878-2.3999634,6.5-1.3999634
	c19.6000366,9,39.2999878,18,58.9000244,27c2.8999634,1.2999878,4.7999878,4.0999756,5.0999756,7.2999878
	C389.7999878,326.3999634,389.9000244,330.7999878,389.2000732,335.9000244z"/>
</svg>
