<?xml version="1.0" encoding="utf-8"?>
<!-- Generator: Adobe Illustrator 24.0.0, SVG Export Plug-In . SVG Version: 6.00 Build 0)  -->
<svg version="1.1" id="Social_Icons" xmlns="http://www.w3.org/2000/svg" xmlns:xlink="http://www.w3.org/1999/xlink" x="0px"
	 y="0px" viewBox="0 0 23 23" style="enable-background:new 0 0 23 23;" xml:space="preserve">
<g id="_x37__stroke">
	<g id="Instagram_1_">
		<path id="Instagram" d="M19.0186653,5.3613358c0,0.7622342-0.6179466,1.3800001-1.3800011,1.3800001
			S16.2586651,6.12357,16.2586651,5.3613358s0.6179447-1.3800001,1.3799992-1.3800001
			C18.400898,3.9813359,19.0186653,4.5991015,19.0186653,5.3613358z M11.5,15.3332739
			c-2.1170778,0-3.8332734-1.7161961-3.8332734-3.8332739S9.3829212,7.6667266,11.5,7.6667266S15.3332739,9.3829212,15.3332739,11.5
			S13.6170778,15.3332739,11.5,15.3332739z M11.5,5.5945702c-3.261508,0-5.9054298,2.6439219-5.9054298,5.9054298
			S8.238492,17.4054298,11.5,17.4054298S17.4054298,14.7615089,17.4054298,11.5S14.761508,5.5945702,11.5,5.5945702z
			 M11.5,2.0721562c3.0706806,0,3.4343672,0.0116796,4.6468983,0.0670235
			c1.1212502,0.0512109,1.7302113,0.2384453,2.1354065,0.3960311c0.536726,0.2086172,0.9198208,0.4578438,1.3223209,0.8603437
			c0.4025002,0.4023204,0.6517258,0.7854142,0.8603439,1.3223205c0.1574059,0.4051957,0.34482,1.0141563,0.3960323,2.135406
			c0.0553436,1.2127113,0.0670223,1.5763979,0.0670223,4.6470785s-0.0116787,3.4343662-0.0670223,4.6468973
			c-0.0512123,1.1212502-0.2384472,1.7302113-0.3960323,2.1354084c-0.2086182,0.536726-0.4578438,0.9198208-0.8603439,1.322319
			c-0.4023209,0.4025002-0.7854137,0.6517277-1.3223209,0.8603439c-0.4051952,0.1574078-1.0141544,0.34482-2.1354065,0.3960323
			C14.9343672,20.9167042,14.5706787,20.9283848,11.5,20.9283848c-3.070859,0-3.4345465-0.0116806-4.647078-0.0670242
			c-1.1212502-0.0512123-1.7302108-0.2384453-2.135406-0.3960323c-0.5367265-0.2086163-0.9198203-0.4578419-1.3223205-0.8603439
			c-0.4023204-0.402319-0.6517267-0.7854137-0.8603439-1.322319c-0.1574063-0.4051952-0.3448203-1.0141563-0.3960314-2.1354084
			c-0.0553436-1.2127104-0.0670233-1.5763979-0.0670233-4.6468973c0-3.0706806,0.0116796-3.4343672,0.0670233-4.6470785
			c0.0512111-1.1212497,0.2384453-1.7302108,0.3960314-2.135406c0.2086172-0.5367265,0.4578438-0.9198201,0.8603439-1.3223205
			c0.4023204-0.4024999,0.7854142-0.6517265,1.3223205-0.8603437c0.4051952-0.1574063,1.0141563-0.3448203,2.135406-0.3960314
			C8.0656328,2.0838361,8.4293203,2.0721562,11.5,2.0721562z M11.5,0C8.3768511,0,7.9851327,0.0132969,6.7585859,0.0691797
			C5.534555,0.1250625,4.6984687,0.3194844,3.9671404,0.60375C3.2108359,0.897539,2.5695312,1.290875,1.9302028,1.9302031
			S0.897539,3.2108359,0.60375,3.9671404C0.3194844,4.698648,0.1250625,5.5345545,0.0691797,6.7585859
			C0.0132969,7.9851327,0,8.3768511,0,11.5s0.0132969,3.5148678,0.0691797,4.741415
			c0.0558828,1.2240295,0.2503047,2.0599365,0.5345703,2.7914448c0.293789,0.7563038,0.687125,1.3976078,1.3264531,2.0369358
			s1.2806329,1.032486,2.0369372,1.3264542c0.7315075,0.2842655,1.567414,0.4786873,2.7914455,0.5345707
			C7.9851327,22.9867039,8.3768511,23,11.5,23s3.5148678-0.0132961,4.741415-0.0691795
			c1.2240295-0.0558834,2.0599365-0.2503052,2.7914448-0.5345707c0.7563038-0.2939682,1.3976078-0.6871243,2.0369358-1.3264542
			c0.639328-0.639328,1.032486-1.280632,1.3264542-2.0369358c0.2842655-0.7315083,0.4786873-1.5674152,0.5345707-2.7914467
			C22.9867039,15.0148668,23,14.623148,23,11.5s-0.0132961-3.5148673-0.0691795-4.7414141
			c-0.0558834-1.2240314-0.2503052-2.059938-0.5345707-2.7914455c-0.2939682-0.7563045-0.6871243-1.3976092-1.3264542-2.0369377
			c-0.639328-0.6393281-1.280632-1.0324843-2.0369358-1.3264531c-0.7315083-0.2842656-1.5674152-0.4786875-2.7914467-0.5345703
			C15.0148668,0.0132969,14.623148,0,11.5,0z"/>
	</g>
</g>
</svg>
