<?xml version="1.0" encoding="utf-8"?>
<!-- Generator: Adobe Illustrator 24.0.0, SVG Export Plug-In . SVG Version: 6.00 Build 0)  -->
<svg version="1.1" id="Слой_1" xmlns="http://www.w3.org/2000/svg" xmlns:xlink="http://www.w3.org/1999/xlink" x="0px" y="0px"
	 viewBox="0 0 20 18" style="enable-background:new 0 0 20 18;" xml:space="preserve">
<g>
	<path d="M13.62393,1C16.6385498,1,19,3.2636399,19,6.1533899c0,2.8512096-4.208231,6.4325905-7.9210796,9.59237
		c-0.3646641,0.3103428-0.7267494,0.6185036-1.0827408,0.9239941c-0.3544865-0.3043537-0.7146835-0.6111088-1.07724-0.9198637
		C5.2070999,12.5888596,1,9.0060701,1,6.1533899c0-2.88975,2.3614497-5.1533899,5.3760695-5.1533899
		c1.0735903,0,2.1742101,0.3113199,3.0991197,0.8766202l0.5234299,0.3199198l0.5223808-0.32164
		C11.4505787,1.3025401,12.5235596,1,13.62393,1 M13.62393,0c-1.2925301,0-2.5464096,0.35788-3.6272411,1.02337
		C8.917099,0.36353,7.6459594,0,6.3760695,0C2.8011198,0,0,2.7028298,0,6.1533899
		c0,3.8010998,5.6257701,8.0340796,9.9960594,11.8377504c0,0,0.0032501,0,0.0032501,0.0088596l-0.0032501-0.0088596
		C14.3460693,14.2059698,20,9.9565487,20,6.1533895C20,2.7028298,17.2230091,0,13.62393,0L13.62393,0z"/>
</g>
</svg>
